<svg width="201" height="185" viewBox="0 0 201 185" fill="none" xmlns="http://www.w3.org/2000/svg">
<path  d="M97.4194 183.5L96.7727 184.263L97.5687 184.938L98.2091 184.114L97.4194 183.5ZM96.7147 26.1942L97.3497 25.4217L96.7147 26.1942ZM97.3497 25.4217C76.5488 8.32352 59.495 1.4925 45.7399 1.36938C31.932 1.24579 21.6278 7.88149 14.3813 17.2809C7.15461 26.6545 2.94227 38.7989 1.21955 49.8625C0.357229 55.4005 0.114297 60.6947 0.438724 65.2681C0.761756 69.8218 1.65269 73.7404 3.11886 76.4728L4.88119 75.5272C3.60513 73.1491 2.7475 69.55 2.43371 65.1266C2.12132 60.7228 2.35331 55.5805 3.19574 50.1702C4.88254 39.3372 8.99904 27.5378 15.9652 18.502C22.9116 9.49191 32.6642 3.25242 45.722 3.3693C58.8324 3.48665 75.453 10.0117 96.0797 26.9667L97.3497 25.4217ZM3.11886 76.4728C8.61453 86.7148 14.0219 96.4036 19.1349 103.284C21.6893 106.721 24.2122 109.516 26.6816 111.329C29.147 113.14 31.6989 114.069 34.229 113.473L33.771 111.527C32.0511 111.931 30.103 111.36 27.8653 109.717C25.6315 108.077 23.2481 105.466 20.7401 102.091C15.7281 95.3464 10.3855 85.7852 4.88119 75.5272L3.11886 76.4728ZM98.2091 184.114C106.074 173.992 111.221 168.693 121.224 158.19L119.776 156.81C109.779 167.307 104.565 172.675 96.6298 182.886L98.2091 184.114ZM121.224 158.19C131.102 147.818 168.557 115.71 193.883 81.9022L192.282 80.7032C167.037 114.404 129.898 146.182 119.776 156.81L121.224 158.19ZM193.883 81.9022C200.398 73.205 202.226 61.0208 200.238 48.8149C198.248 36.596 192.416 24.2187 183.422 15.0416C174.414 5.85098 162.216 -0.141617 147.559 0.503301C132.919 1.14745 115.97 8.40629 97.4121 25.4226L98.7638 26.8968C117.097 10.0867 133.619 3.11861 147.647 2.50137C161.658 1.88489 173.324 7.59644 181.993 16.4416C190.676 25.3002 196.334 37.2903 198.264 49.1364C200.195 60.9955 198.372 72.574 192.282 80.7032L193.883 81.9022ZM34 112.5C33.2839 113.198 33.2839 113.198 33.284 113.198C33.2841 113.198 33.2843 113.198 33.2845 113.199C33.285 113.199 33.2858 113.2 33.2868 113.201C33.2889 113.203 33.2921 113.206 33.2963 113.211C33.3048 113.219 33.3175 113.233 33.3345 113.25C33.3685 113.285 33.4193 113.338 33.4863 113.407C33.6204 113.545 33.819 113.752 34.0768 114.021C34.5922 114.559 35.3438 115.348 36.2867 116.352C38.1725 118.36 40.8228 121.225 43.8786 124.653C49.9934 131.513 57.7178 140.609 64.1889 149.585L65.8112 148.415C59.2823 139.359 51.5067 130.205 45.3715 123.322C42.3022 119.879 39.64 117.001 37.7446 114.983C36.7968 113.974 36.0406 113.179 35.5209 112.637C35.261 112.366 35.0603 112.157 34.9243 112.017C34.8563 111.946 34.8045 111.893 34.7696 111.857C34.7521 111.839 34.7389 111.825 34.7299 111.816C34.7254 111.812 34.7221 111.808 34.7198 111.806C34.7186 111.805 34.7177 111.804 34.7171 111.803C34.7168 111.803 34.7166 111.802 34.7164 111.802C34.7162 111.802 34.7161 111.802 34 112.5ZM64.1889 149.585C70.7359 158.666 78.8854 167.336 85.3837 173.725C88.6356 176.922 91.4799 179.554 93.5122 181.388C94.5285 182.304 95.342 183.022 95.9022 183.511C96.1823 183.755 96.3991 183.942 96.5462 184.069C96.6198 184.132 96.676 184.18 96.714 184.213C96.733 184.229 96.7475 184.241 96.7573 184.25C96.7622 184.254 96.7659 184.257 96.7685 184.259C96.7698 184.26 96.7708 184.261 96.7715 184.262C96.7718 184.262 96.7721 184.262 96.7723 184.262C96.7725 184.263 96.7727 184.263 97.4194 183.5C98.0662 182.737 98.0662 182.737 98.0661 182.737C98.066 182.737 98.0659 182.737 98.0656 182.737C98.0651 182.736 98.0644 182.736 98.0633 182.735C98.0611 182.733 98.0578 182.73 98.0533 182.726C98.0444 182.719 98.0308 182.707 98.0126 182.692C97.9764 182.661 97.9219 182.614 97.8501 182.552C97.7065 182.429 97.4934 182.245 97.2171 182.004C96.6645 181.522 95.8593 180.811 94.8519 179.903C92.8368 178.085 90.0138 175.473 86.7858 172.299C80.3244 165.946 72.2641 157.366 65.8112 148.415L64.1889 149.585ZM34 112.5C34.3183 113.448 34.3184 113.448 34.3187 113.448C34.319 113.448 34.3196 113.448 34.3203 113.447C34.3219 113.447 34.3244 113.446 34.3277 113.445C34.3343 113.443 34.3444 113.439 34.358 113.435C34.385 113.426 34.4258 113.412 34.4798 113.394C34.5879 113.359 34.7488 113.306 34.959 113.238C35.3794 113.102 35.9967 112.904 36.781 112.661C38.35 112.174 40.5866 111.504 43.2536 110.769C48.5925 109.297 55.6351 107.574 62.4904 106.552C69.3873 105.522 75.9381 105.228 80.3758 106.5C82.5793 107.132 84.1349 108.114 85.0084 109.456C85.868 110.778 86.1823 112.628 85.5296 115.259L87.4707 115.741C88.2132 112.747 87.9333 110.285 86.6848 108.366C85.4501 106.468 83.3838 105.282 80.9269 104.578C76.0441 103.178 69.1211 103.54 62.1953 104.573C55.228 105.613 48.0992 107.359 42.7223 108.841C40.0314 109.582 37.7741 110.259 36.1885 110.751C35.3956 110.997 34.7705 111.197 34.3428 111.335C34.129 111.404 33.9645 111.458 33.8531 111.495C33.7974 111.514 33.7549 111.528 33.7262 111.537C33.7119 111.542 33.7009 111.546 33.6935 111.548C33.6898 111.549 33.6869 111.55 33.685 111.551C33.684 111.551 33.6832 111.552 33.6827 111.552C33.6821 111.552 33.6817 111.552 34 112.5ZM85.5296 115.259C84.0936 121.049 84.0905 128.245 84.8572 135.719C85.6254 143.209 87.1751 151.053 88.895 158.172C90.6155 165.294 92.5105 171.708 93.975 176.34C94.7075 178.657 95.3326 180.53 95.7751 181.824C95.9964 182.472 96.172 182.975 96.2925 183.316C96.3527 183.487 96.3992 183.618 96.4307 183.706C96.4465 183.75 96.4585 183.783 96.4667 183.806C96.4708 183.817 96.4739 183.826 96.476 183.832C96.4771 183.835 96.4779 183.837 96.4784 183.838C96.4787 183.839 96.4789 183.84 96.4791 183.84C96.4792 183.841 96.4794 183.841 97.4194 183.5C98.3595 183.159 98.3595 183.159 98.3594 183.159C98.3593 183.159 98.3592 183.158 98.359 183.157C98.3585 183.156 98.3578 183.154 98.3569 183.152C98.355 183.147 98.3522 183.139 98.3483 183.128C98.3407 183.107 98.3291 183.075 98.3138 183.032C98.2833 182.946 98.2378 182.819 98.1786 182.651C98.0601 182.315 97.8866 181.818 97.6676 181.178C97.2295 179.896 96.6093 178.038 95.882 175.738C94.4272 171.136 92.546 164.768 90.8391 157.703C89.1315 150.634 87.6026 142.885 86.8467 135.515C86.0892 128.13 86.1164 121.201 87.4707 115.741L85.5296 115.259ZM96.0797 26.9667C96.8487 27.5988 98.0231 27.5759 98.7638 26.8968L97.4121 25.4226C97.4191 25.4162 97.4219 25.4163 97.4162 25.4184C97.41 25.4208 97.3986 25.4237 97.3836 25.4241C97.3686 25.4244 97.3564 25.4221 97.349 25.4197C97.342 25.4174 97.3434 25.4165 97.3497 25.4217L96.0797 26.9667Z" fill="#E5D9D9"/>
</svg>
