<svg width="102" height="94" viewBox="0 0 102 94" fill="none" xmlns="http://www.w3.org/2000/svg">
<path d="M50.0391 13.0512C49.6679 13.3854 49.062 13.3994 48.6736 13.0852C7.26246 -20.4092 -3.14662 28.0727 2.35846 38.263C7.89444 48.5105 13.1788 57.5084 17.4566 56.5086C17.4566 56.5086 46.6872 46.761 43.8786 58.0082C41.0699 69.2555 49.3739 92 49.3739 92C53.3496 86.9181 55.9571 84.2519 60.9898 79.0031C66.0225 73.7544 84.7932 57.7868 97.5186 40.9137C110.168 24.1411 86.9811 -20.2063 50.0391 13.0512Z" fill="#D9D9D9"/>
<path d="M49.3739 92L48.7297 92.7648L49.5227 93.4328L50.1616 92.6162L49.3739 92ZM97.5186 40.9137L96.7203 40.3116L97.5186 40.9137ZM48.6736 13.0852L49.3025 12.3077L48.6736 13.0852ZM50.0391 13.0512L50.7082 13.7944L50.0391 13.0512ZM49.3025 12.3077C38.8606 3.86208 30.2278 0.461806 23.1932 0.455777C16.1083 0.449704 10.8243 3.88519 7.13015 8.6822C3.45527 13.4542 1.32801 19.5951 0.461192 25.166C0.0268407 27.9576 -0.0954109 30.6328 0.0720932 32.9536C0.238189 35.2549 0.694688 37.2872 1.47864 38.7383L3.23828 37.7877C2.64596 36.6913 2.22351 34.9794 2.0669 32.8096C1.91171 30.6594 2.02302 28.1368 2.43741 25.4735C3.26809 20.1348 5.29909 14.3379 8.71474 9.90247C12.1112 5.49202 16.8499 2.45034 23.1915 2.45578C29.5835 2.46125 37.781 5.56116 48.0447 13.8627L49.3025 12.3077ZM1.47864 38.7383C4.2423 43.8541 6.98005 48.7293 9.57865 52.2026C10.876 53.9367 12.1807 55.3794 13.4821 56.3285C14.7799 57.2749 16.2124 57.8263 17.6842 57.4824L17.2291 55.5348C16.5619 55.6908 15.7298 55.4923 14.6606 54.7126C13.5951 53.9355 12.4305 52.6758 11.1801 51.0045C8.68303 47.6669 6.01059 42.9195 3.23828 37.7877L1.47864 38.7383ZM50.1616 92.6162C54.102 87.5794 56.6758 84.9472 61.7116 79.6952L60.268 78.311C55.2383 83.5566 52.5973 86.2568 48.5863 91.3838L50.1616 92.6162ZM61.7116 79.6952C66.6219 74.5742 85.5512 58.4425 98.317 41.5159L96.7203 40.3116C84.0351 57.1311 65.4232 72.9346 60.268 78.311L61.7116 79.6952ZM98.317 41.5159C101.693 37.039 102.619 30.8188 101.619 24.6474C100.616 18.4633 97.6624 12.1935 93.0905 7.52175C88.5058 2.83694 82.2767 -0.252449 74.7857 0.0162207C67.3105 0.284321 58.7202 3.89038 49.3701 12.308L50.7082 13.7944C59.829 5.5833 67.9903 2.26123 74.8574 2.01494C81.7086 1.76921 87.4124 4.57918 91.6611 8.92061C95.9225 13.2751 98.7027 19.1584 99.6444 24.9674C100.588 30.7891 99.6687 36.4021 96.7203 40.3116L98.317 41.5159ZM17.4566 56.5086C16.7429 57.209 16.7429 57.209 16.7429 57.209C16.743 57.2091 16.743 57.2091 16.7431 57.2092C16.7434 57.2095 16.7437 57.2098 16.7442 57.2103C16.7452 57.2113 16.7467 57.2129 16.7488 57.215C16.7529 57.2192 16.7592 57.2257 16.7677 57.2343C16.7845 57.2516 16.8099 57.2775 16.8433 57.3119C16.9103 57.3807 17.0098 57.4832 17.139 57.6171C17.3973 57.885 17.7744 58.2784 18.2477 58.7789C19.1944 59.7801 20.5252 61.2093 22.0597 62.9191C25.132 66.3423 29.0067 70.8747 32.2488 75.3416L33.8674 74.1668C30.567 69.6197 26.6409 65.0292 23.5481 61.5832C22.0001 59.8583 20.6573 58.4162 19.7009 57.4048C19.2227 56.8991 18.841 56.5008 18.5784 56.2286C18.4471 56.0925 18.3455 55.9879 18.2766 55.917C18.2421 55.8816 18.2158 55.8546 18.198 55.8364C18.1891 55.8273 18.1823 55.8203 18.1777 55.8156C18.1754 55.8133 18.1736 55.8115 18.1724 55.8102C18.1718 55.8096 18.1713 55.8091 18.171 55.8088C18.1708 55.8086 18.1707 55.8085 18.1706 55.8084C18.1705 55.8083 18.1704 55.8082 17.4566 56.5086ZM32.2488 75.3416C35.5675 79.9138 39.6913 84.2701 42.9708 87.4728C44.6134 89.0769 46.0502 90.3974 47.0773 91.3177C47.591 91.7779 48.0024 92.1384 48.2863 92.3844C48.4282 92.5074 48.5382 92.6018 48.6132 92.6658C48.6507 92.6978 48.6794 92.7222 48.6989 92.7388C48.7087 92.7471 48.7162 92.7534 48.7214 92.7578C48.7239 92.76 48.7259 92.7616 48.7273 92.7628C48.728 92.7634 48.7286 92.7639 48.729 92.7642C48.7292 92.7644 48.7294 92.7645 48.7295 92.7646C48.7296 92.7648 48.7297 92.7648 49.3739 92C50.0182 91.2352 50.0182 91.2352 50.0182 91.2352C50.0182 91.2352 50.0181 91.2351 50.018 91.235C50.0178 91.2349 50.0175 91.2346 50.017 91.2342C50.016 91.2334 50.0145 91.232 50.0123 91.2302C50.008 91.2266 50.0014 91.221 49.9925 91.2134C49.9746 91.1983 49.9477 91.1754 49.912 91.1449C49.8406 91.0839 49.7343 90.9927 49.5962 90.873C49.32 90.6336 48.9168 90.2805 48.412 89.8282C47.4021 88.9233 45.9867 87.6225 44.3682 86.0419C41.1255 82.8752 37.0913 78.6085 33.8674 74.1668L32.2488 75.3416ZM17.4566 56.5086C17.773 57.4572 17.773 57.4573 17.773 57.4572C17.7732 57.4572 17.7734 57.4571 17.7737 57.457C17.7744 57.4568 17.7756 57.4564 17.7771 57.4559C17.7803 57.4548 17.7852 57.4532 17.7918 57.451C17.805 57.4466 17.8251 57.44 17.8519 57.4312C17.9054 57.4137 17.9856 57.3876 18.0905 57.3538C18.3002 57.2863 18.6089 57.1884 19.0016 57.0674C19.7871 56.8254 20.9077 56.4916 22.244 56.1258C24.9216 55.3929 28.4448 54.5371 31.8674 54.0299C35.3313 53.5165 38.537 53.3859 40.6612 53.9907C41.7086 54.289 42.3642 54.7299 42.7131 55.2625C43.0472 55.7727 43.2139 56.5424 42.9084 57.766L44.8488 58.2505C45.2454 56.6623 45.113 55.2763 44.3861 54.1667C43.6741 53.0796 42.5069 52.4368 41.2089 52.0672C38.6423 51.3364 35.0669 51.5339 31.5742 52.0515C28.0403 52.5752 24.4315 53.4535 21.716 54.1967C20.3559 54.569 19.2148 54.9089 18.4127 55.1561C18.0116 55.2796 17.695 55.3801 17.478 55.4499C17.3695 55.4848 17.2858 55.5121 17.2289 55.5307C17.2005 55.54 17.1787 55.5472 17.1639 55.5521C17.1564 55.5546 17.1507 55.5565 17.1468 55.5578C17.1448 55.5584 17.1433 55.559 17.1422 55.5593C17.1417 55.5595 17.1412 55.5597 17.1409 55.5597C17.1406 55.5599 17.1403 55.56 17.4566 56.5086ZM42.9084 57.766C42.1649 60.7433 42.1694 64.4082 42.5576 68.1671C42.9474 71.9415 43.7326 75.8864 44.6013 79.4582C45.4707 83.0326 46.4279 86.2503 47.1674 88.5737C47.5374 89.736 47.8532 90.6758 48.077 91.3261C48.1889 91.6513 48.2779 91.9042 48.339 92.0765C48.3696 92.1626 48.3933 92.2286 48.4094 92.2733C48.4175 92.2957 48.4236 92.3128 48.4279 92.3244C48.43 92.3303 48.4316 92.3347 48.4327 92.3378C48.4333 92.3394 48.4337 92.3406 48.434 92.3414C48.4342 92.3419 48.4343 92.3422 48.4344 92.3425C48.4345 92.3427 48.4346 92.343 49.3739 92C50.3133 91.657 50.3133 91.6571 50.3133 91.657C50.3132 91.6569 50.3132 91.6568 50.3131 91.6565C50.3129 91.656 50.3126 91.6551 50.3121 91.6539C50.3113 91.6515 50.3099 91.6477 50.308 91.6425C50.3043 91.6322 50.2986 91.6165 50.291 91.5955C50.2759 91.5535 50.2533 91.4904 50.2237 91.4072C50.1646 91.2408 50.0779 90.994 49.9682 90.6753C49.7488 90.0379 49.4379 89.1129 49.0732 87.9671C48.3435 85.6745 47.4002 82.5031 46.5447 78.9855C45.6885 75.4652 44.9243 71.6152 44.547 67.9617C44.1681 64.2927 44.1879 60.8968 44.8488 58.2505L42.9084 57.766ZM48.0447 13.8627C48.8125 14.4837 49.9688 14.46 50.7082 13.7944L49.3701 12.308C49.3755 12.3031 49.377 12.3037 49.3709 12.306C49.3643 12.3085 49.353 12.3113 49.3385 12.3117C49.3239 12.312 49.312 12.3098 49.3044 12.3073C49.2972 12.305 49.2976 12.3038 49.3025 12.3077L48.0447 13.8627Z" fill="#E5D9D9"/>
</svg>
