<svg width="201" height="186" viewBox="0 0 201 186" fill="none" xmlns="http://www.w3.org/2000/svg">
<path id='path2' d="M97.7871 25.7038C97.4171 26.0431 96.8018 26.0571 96.4139 25.7383C13.5586 -42.368 -7.26967 55.1019 3.69924 75.5441C14.6992 96.0441 25.1992 114.044 33.6992 112.044C33.6992 112.044 91.7801 92.5441 86.1994 115.044C80.6187 137.544 97.1187 183.044 97.1187 183.044C105.018 172.878 110.199 167.544 120.199 157.044C130.199 146.544 167.496 114.601 192.782 80.8468C217.991 47.194 171.57 -41.9491 97.7871 25.7038Z" fill="#D9D9D9"/>
<path id='path3' d="M97.7871 25.7038L97.1113 24.9667L97.1113 24.9667L97.7871 25.7038ZM96.4139 25.7383L97.0489 24.9658L97.0489 24.9658L96.4139 25.7383ZM3.69924 75.5441L2.81808 76.0169L3.69924 75.5441ZM33.6992 112.044L33.9283 113.017L33.9735 113.007L34.0175 112.992L33.6992 112.044ZM86.1994 115.044L87.17 115.285L87.17 115.285L86.1994 115.044ZM97.1187 183.044L96.1786 183.385L96.7964 185.089L97.9083 183.658L97.1187 183.044ZM192.782 80.8468L191.982 80.2472L191.982 80.2472L192.782 80.8468ZM97.1113 24.9667C97.1184 24.9603 97.1211 24.9603 97.1154 24.9625C97.1092 24.9649 97.0978 24.9678 97.0828 24.9681C97.0678 24.9685 97.0556 24.9662 97.0482 24.9638C97.0412 24.9615 97.0427 24.9606 97.0489 24.9658L95.7789 26.5108C96.5479 27.1429 97.7223 27.12 98.463 26.4408L97.1113 24.9667ZM97.0489 24.9658C76.248 7.86759 59.1942 1.03657 45.4391 0.913455C31.6313 0.789866 21.327 7.42557 14.0805 16.8249C6.85383 26.1986 2.64149 38.3429 0.918773 49.4066C0.056448 54.9446 -0.186485 60.2388 0.137942 64.8122C0.460975 69.3659 1.35191 73.2845 2.81808 76.0169L4.58041 75.0713C3.30435 72.6931 2.44672 69.0941 2.13293 64.6707C1.82053 60.2669 2.05253 55.1246 2.89496 49.7143C4.58176 38.8813 8.69826 27.0819 15.6644 18.0461C22.6108 9.03599 32.3634 2.7965 45.4212 2.91337C58.5317 3.03072 75.1522 9.55582 95.7789 26.5108L97.0489 24.9658ZM2.81808 76.0169C8.31374 86.2589 13.7211 95.9477 18.8341 102.828C21.3886 106.266 23.9115 109.061 26.3808 110.874C28.8462 112.684 31.3981 113.613 33.9283 113.017L33.4702 111.071C31.7503 111.475 29.8022 110.904 27.5645 109.261C25.3307 107.621 22.9474 105.01 20.4394 101.635C15.4273 94.8905 10.0847 85.3293 4.58041 75.0713L2.81808 76.0169ZM33.6992 112.044C34.0175 112.992 34.0176 112.992 34.0179 112.992C34.0183 112.992 34.0188 112.992 34.0196 112.991C34.0211 112.991 34.0236 112.99 34.0269 112.989C34.0335 112.987 34.0436 112.983 34.0572 112.979C34.0843 112.97 34.125 112.956 34.179 112.938C34.2871 112.903 34.4481 112.85 34.6582 112.782C35.0787 112.646 35.6959 112.449 36.4803 112.205C38.0492 111.719 40.2858 111.048 42.9528 110.313C48.2917 108.842 55.3343 107.119 62.1896 106.096C69.0865 105.067 75.6373 104.772 80.075 106.044C82.2785 106.676 83.8341 107.658 84.7076 109.001C85.5672 110.322 85.8815 112.172 85.2288 114.803L87.17 115.285C87.9124 112.291 87.6325 109.829 86.384 107.91C85.1493 106.012 83.083 104.826 80.6262 104.122C75.7433 102.722 68.8203 103.084 61.8945 104.118C54.9272 105.157 47.7984 106.903 42.4215 108.385C39.7306 109.126 37.4733 109.803 35.8877 110.295C35.0948 110.541 34.4697 110.741 34.042 110.879C33.8282 110.948 33.6637 111.002 33.5523 111.039C33.4966 111.058 33.4541 111.072 33.4254 111.081C33.4111 111.086 33.4001 111.09 33.3927 111.092C33.389 111.093 33.3862 111.094 33.3842 111.095C33.3832 111.095 33.3824 111.096 33.3819 111.096C33.3813 111.096 33.3809 111.096 33.6992 112.044ZM85.2288 114.803C83.7928 120.593 83.7897 127.789 84.5564 135.263C85.3246 142.753 86.8743 150.597 88.5942 157.716C90.3148 164.838 92.2097 171.252 93.6743 175.885C94.4067 178.201 95.0319 180.074 95.4743 181.368C95.6956 182.016 95.8712 182.519 95.9917 182.86C96.0519 183.031 96.0984 183.162 96.13 183.25C96.1457 183.294 96.1578 183.327 96.1659 183.35C96.17 183.361 96.1731 183.37 96.1752 183.376C96.1763 183.379 96.1771 183.381 96.1776 183.382C96.1779 183.383 96.1782 183.384 96.1783 183.384C96.1785 183.385 96.1786 183.385 97.1187 183.044C98.0588 182.703 98.0587 182.703 98.0587 182.703C98.0586 182.703 98.0584 182.702 98.0582 182.702C98.0577 182.7 98.0571 182.698 98.0561 182.696C98.0542 182.691 98.0514 182.683 98.0475 182.672C98.0399 182.651 98.0283 182.619 98.013 182.576C97.9825 182.491 97.937 182.363 97.8778 182.195C97.7593 181.859 97.5859 181.362 97.3668 180.722C96.9288 179.44 96.3085 177.582 95.5812 175.282C94.1264 170.68 92.2452 164.312 90.5383 157.247C88.8308 150.179 87.3019 142.429 86.5459 135.059C85.7884 127.674 85.8156 120.745 87.17 115.285L85.2288 114.803ZM97.9083 183.658C105.773 173.537 110.92 168.237 120.923 157.734L119.475 156.354C109.478 166.851 104.264 172.219 96.329 182.43L97.9083 183.658ZM120.923 157.734C130.801 147.362 168.257 115.254 193.582 81.4463L191.982 80.2472C166.736 113.948 129.597 145.726 119.475 156.354L120.923 157.734ZM193.582 81.4463C200.097 72.7491 201.925 60.5649 199.937 48.359C197.947 36.14 192.115 23.7628 183.121 14.5857C174.113 5.39506 161.915 -0.597542 147.258 0.0473751C132.619 0.691529 115.67 7.95037 97.1113 24.9667L98.463 26.4408C116.796 9.63078 133.318 2.66268 147.346 2.04544C161.357 1.42897 173.023 7.14052 181.692 15.9856C190.375 24.8443 196.033 36.8344 197.963 48.6805C199.894 60.5396 198.071 72.118 191.982 80.2472L193.582 81.4463Z" fill="#E5D9D9"/>
</svg>
