<svg width="104" height="96" viewBox="0 0 104 96" fill="none" xmlns="http://www.w3.org/2000/svg">
<path id='path5' d="M51.0391 14.0512C50.6679 14.3854 50.062 14.3994 49.6736 14.0852C8.26245 -19.4092 -2.14662 29.0727 3.35846 39.263C8.89444 49.5105 14.1788 58.5084 18.4566 57.5086C18.4566 57.5086 47.6872 47.761 44.8786 59.0082C42.0699 70.2555 50.3739 93.0001 50.3739 93.0001C54.3496 87.9182 56.9571 85.2519 61.9898 80.0032C67.0225 74.7545 85.7932 58.7868 98.5187 41.9137C111.168 25.1411 87.9811 -19.2063 51.0391 14.0512Z" fill="#D9D9D9"/>
<path id='path6' d="M50.3739 93.0001L49.0855 94.5298L50.6715 95.8656L51.9492 94.2324L50.3739 93.0001ZM49.6736 14.0852L48.4159 15.6402L49.6736 14.0852ZM51.0391 14.0512L52.3773 15.5376L52.3773 15.5376L51.0391 14.0512ZM50.9313 12.5302C40.4004 4.01254 31.5499 0.462077 24.1941 0.455773C16.7375 0.449383 11.1808 4.08177 7.33785 9.07206C3.53337 14.0124 1.35797 20.3252 0.473082 26.0123C0.0287525 28.868 -0.0989722 31.6195 0.0746876 34.0256C0.24553 36.3926 0.719054 38.5851 1.59881 40.2136L5.1181 38.3124C4.62159 37.3933 4.21616 35.8416 4.06431 33.7376C3.91527 31.6727 4.0211 29.2265 4.42552 26.6273C5.23813 21.4047 7.221 15.7797 10.507 11.5126C13.7546 7.29543 18.2207 4.45066 24.1907 4.45577C30.2614 4.46097 38.2412 7.41069 48.4159 15.6402L50.9313 12.5302ZM1.59881 40.2136C4.35815 45.3214 7.12856 50.2605 9.77795 53.8017C11.0988 55.5671 12.4735 57.1014 13.8929 58.1365C15.3049 59.1663 17.0377 59.8941 18.9118 59.4561L18.0015 55.5611C17.7367 55.623 17.2047 55.601 16.2498 54.9046C15.3022 54.2136 14.2077 53.0453 12.9808 51.4054C10.5345 48.1357 7.89474 43.4522 5.1181 38.3124L1.59881 40.2136ZM51.9492 94.2324C55.8543 89.2407 58.3945 86.6426 63.4334 81.3874L60.5462 78.619C55.5196 83.8613 52.845 86.5956 48.7987 91.7677L51.9492 94.2324ZM63.4334 81.3874C68.2212 76.3941 87.3092 60.0982 100.115 43.118L96.9219 40.7094C84.2771 57.4754 65.8239 73.1148 60.5462 78.619L63.4334 81.3874ZM100.115 43.118C103.706 38.3574 104.635 31.8337 103.606 25.4874C102.573 19.1157 99.5323 12.6526 94.8052 7.82231C90.0524 2.96581 83.5608 -0.263284 75.7499 0.0168592C67.9706 0.295865 59.1659 4.04391 49.701 12.5648L52.3773 15.5376C61.3833 7.42976 69.3302 4.24967 75.8932 4.01429C82.4245 3.78004 87.8657 6.4503 91.9464 10.62C96.0526 14.8159 98.746 20.506 99.6573 26.1275C100.573 31.7743 99.6564 37.0837 96.9219 40.7094L100.115 43.118ZM18.4566 57.5086C17.0291 58.9094 17.0291 58.9093 17.0291 58.9093C17.0291 58.9094 17.0291 58.9094 17.0292 58.9095C17.0294 58.9096 17.0297 58.9099 17.0301 58.9104C17.031 58.9113 17.0324 58.9127 17.0343 58.9147C17.0382 58.9187 17.0443 58.9249 17.0525 58.9333C17.0689 58.95 17.0937 58.9755 17.1267 59.0094C17.1927 59.0772 17.2911 59.1786 17.4192 59.3114C17.6755 59.577 18.0503 59.968 18.5211 60.466C19.463 61.4621 20.7878 62.8848 22.3155 64.587C25.3776 67.9989 29.2265 72.5022 32.4395 76.929L35.6767 74.5794C32.3472 69.9922 28.3954 65.3727 25.2924 61.9153C23.7375 60.1828 22.3887 58.7343 21.4276 57.7178C20.9469 57.2094 20.5628 56.8088 20.2981 56.5343C20.1657 56.3971 20.0632 56.2914 19.9932 56.2196C19.9583 56.1836 19.9315 56.1562 19.9132 56.1374C19.904 56.1281 19.897 56.1209 19.8921 56.116C19.8897 56.1135 19.8878 56.1116 19.8865 56.1102C19.8858 56.1095 19.8853 56.109 19.8849 56.1086C19.8847 56.1084 19.8845 56.1082 19.8844 56.1081C19.8843 56.1079 19.8841 56.1078 18.4566 57.5086ZM32.4395 76.929C35.8055 81.5666 39.9742 85.9676 43.2721 89.1883C44.9267 90.8041 46.3743 92.1345 47.41 93.0625C47.9281 93.5267 48.3437 93.8908 48.6313 94.1401C48.7752 94.2648 48.887 94.3608 48.9638 94.4263C49.0022 94.4591 49.0318 94.4842 49.0522 94.5016C49.0624 94.5102 49.0703 94.5169 49.0759 94.5216C49.0787 94.524 49.0809 94.5258 49.0825 94.5272C49.0833 94.5279 49.0839 94.5284 49.0844 94.5289C49.0847 94.5291 49.085 94.5293 49.0851 94.5294C49.0853 94.5296 49.0855 94.5298 50.3739 93.0001C51.6624 91.4704 51.6625 91.4705 51.6626 91.4705C51.6626 91.4705 51.6626 91.4706 51.6626 91.4705C51.6625 91.4705 51.6622 91.4703 51.6618 91.4699C51.6611 91.4693 51.6597 91.4681 51.6578 91.4665C51.6539 91.4632 51.6477 91.458 51.6392 91.4508C51.6223 91.4364 51.5962 91.4142 51.5614 91.3845C51.4918 91.3251 51.3873 91.2354 51.2511 91.1174C50.9787 90.8813 50.5797 90.5318 50.0793 90.0835C49.0781 89.1864 47.6734 87.8954 46.0668 86.3265C42.8425 83.1778 38.8533 78.9559 35.6767 74.5794L32.4395 76.929ZM18.4566 57.5086C19.0893 59.4059 19.0892 59.4059 19.0891 59.406C19.0892 59.4059 19.0892 59.4059 19.0895 59.4058C19.09 59.4057 19.0909 59.4054 19.0923 59.4049C19.095 59.404 19.0995 59.4025 19.1057 59.4004C19.1181 59.3963 19.1374 59.39 19.1634 59.3815C19.2152 59.3645 19.2936 59.3389 19.3967 59.3058C19.6029 59.2395 19.9076 59.1427 20.2961 59.0231C21.0733 58.7836 22.1836 58.4529 23.5081 58.0903C26.1666 57.3626 29.647 56.5181 33.014 56.0191C36.4636 55.5078 39.4843 55.4107 41.3873 55.9525C42.3094 56.2151 42.7093 56.555 42.8766 56.8105C43.0144 57.0209 43.1982 57.4824 42.9381 58.5237L46.819 59.4928C47.2611 57.7222 47.1458 56.0281 46.2227 54.6187C45.329 53.2544 43.9061 52.5107 42.4827 52.1054C39.6949 51.3116 35.9347 51.5425 32.4276 52.0623C28.8381 52.5943 25.1864 53.4837 22.452 54.2322C21.08 54.6078 19.9286 54.9507 19.1183 55.2004C18.7129 55.3253 18.3924 55.427 18.1718 55.498C18.0615 55.5334 17.9761 55.5613 17.9175 55.5805C17.8882 55.5901 17.8656 55.5975 17.8499 55.6027C17.8421 55.6053 17.836 55.6073 17.8316 55.6087C17.8295 55.6095 17.8277 55.61 17.8265 55.6105C17.8258 55.6107 17.8252 55.6109 17.8249 55.611C17.8244 55.6112 17.8239 55.6113 18.4566 57.5086ZM42.9381 58.5237C42.1533 61.6665 42.1701 65.466 42.5629 69.2698C42.9589 73.1047 43.7547 77.0971 44.6297 80.6945C45.506 84.2974 46.4701 87.5382 47.2145 89.8771C47.5871 91.0476 47.9054 91.9948 48.1315 92.6516C48.2445 92.98 48.3345 93.236 48.3967 93.4112C48.4278 93.4988 48.452 93.5662 48.4686 93.6123C48.4769 93.6354 48.4833 93.6531 48.4878 93.6655C48.49 93.6716 48.4918 93.6764 48.493 93.6798C48.4936 93.6816 48.4941 93.6829 48.4945 93.684C48.4947 93.6845 48.4949 93.685 48.495 93.6852C48.4951 93.6856 48.4952 93.686 50.3739 93.0001C52.2526 92.3142 52.2527 92.3143 52.2527 92.3144C52.2527 92.3143 52.2527 92.3143 52.2526 92.3141C52.2525 92.3137 52.2522 92.313 52.2519 92.312C52.2511 92.3099 52.2498 92.3064 52.2481 92.3016C52.2446 92.292 52.2392 92.277 52.2318 92.2566C52.2172 92.216 52.1951 92.1543 52.1661 92.0726C52.108 91.9091 52.0223 91.6654 51.9138 91.35C51.6966 90.719 51.3882 89.8014 51.0261 88.6639C50.3013 86.3867 49.365 83.2384 48.5164 79.7492C47.6664 76.2546 46.9128 72.452 46.5417 68.859C46.1675 65.2349 46.1995 61.9736 46.819 59.4928L42.9381 58.5237ZM48.4159 15.6402C49.563 16.5681 51.2698 16.5346 52.3773 15.5376L49.701 12.5648C49.9073 12.3791 50.1357 12.3163 50.3141 12.3119C50.4923 12.3076 50.7196 12.359 50.9313 12.5302L48.4159 15.6402Z" fill="#E5D9D9"/>
</svg>
