<svg width="201" height="184" viewBox="0 0 201 184" fill="none" xmlns="http://www.w3.org/2000/svg">
<path id='path4' fill-rule="evenodd" clip-rule="evenodd" d="M199.937 48.359C201.925 60.5649 200.097 72.7491 193.582 81.4463C174.48 106.946 148.477 131.479 132.612 146.447C127.444 151.324 123.351 155.185 120.923 157.734C120.404 158.279 119.897 158.811 119.403 159.33C110.638 168.528 105.658 173.755 98.549 182.836C97.8601 183.716 96.5584 183.889 95.6792 183.123C91.9197 179.847 75.4115 165.113 63.8881 149.129C52.0582 132.72 36.0547 115.929 33.3689 113.141C33.3684 113.141 33.3679 113.141 33.3673 113.14C33.3551 113.137 33.3237 113.131 33.2737 113.138C30.7886 113.467 28.3023 112.391 25.8946 110.505C23.4766 108.61 21.0045 105.796 18.4993 102.374C13.4863 95.5265 8.19486 86.0373 2.81808 76.0169C1.35191 73.2845 0.460975 69.3659 0.137942 64.8122C-0.186485 60.2388 0.0564479 54.9446 0.918773 49.4066C2.64149 38.343 6.85383 26.1986 14.0805 16.825C21.327 7.42559 31.6313 0.789889 45.4391 0.913477C59.1942 1.03659 76.248 7.86761 97.0489 24.9658C97.0427 24.9606 97.0412 24.9615 97.0482 24.9638C97.0556 24.9662 97.0678 24.9685 97.0828 24.9681C97.0978 24.9678 97.1092 24.9649 97.1154 24.9625C97.1211 24.9604 97.1184 24.9603 97.1113 24.9667C115.67 7.95039 132.619 0.691552 147.258 0.0473983C161.915 -0.597519 174.113 5.39508 183.121 14.5857C192.115 23.7628 197.947 36.1401 199.937 48.359ZM147.346 2.04547C133.318 2.6627 116.796 9.6308 98.463 26.4409C97.7223 27.12 96.548 27.1429 95.7789 26.5108C75.1522 9.55584 58.5317 3.03074 45.4212 2.9134C32.3634 2.79652 22.6108 9.03601 15.6644 18.0461C8.69826 27.0819 4.58176 38.8813 2.89496 49.7143C2.05253 55.1246 1.82053 60.2669 2.13293 64.6707C2.44672 69.0941 3.30435 72.6932 4.58041 75.0713C9.96449 85.1053 15.1947 94.4743 20.1131 101.193C22.5736 104.554 24.9196 107.2 27.1281 108.93C29.347 110.669 31.2959 111.382 33.0107 111.155C33.6 111.077 34.2928 111.217 34.8036 111.747C37.4797 114.525 53.5829 131.415 65.5104 147.959C76.8741 163.722 93.2015 178.31 96.9765 181.6C104.145 172.443 109.186 167.152 117.941 157.965C118.44 157.441 118.951 156.905 119.475 156.354C121.988 153.716 126.166 149.774 131.414 144.822C147.305 129.829 173.004 105.581 191.982 80.2473C198.071 72.1181 199.894 60.5396 197.963 48.6805C196.033 36.8344 190.375 24.8443 181.692 15.9857C173.023 7.14054 161.357 1.42899 147.346 2.04547Z" fill="#E5D9D9"/>
</svg>
