<svg width="104" height="94" viewBox="0 0 104 94" fill="none" xmlns="http://www.w3.org/2000/svg">
<path fill-rule="evenodd" clip-rule="evenodd" d="M103.111 25.666C104.131 31.9343 103.211 38.381 99.6501 43.0864C90.0369 55.7909 76.8474 68.1088 68.9656 75.4697C66.4514 77.8177 64.4773 79.6614 63.3317 80.8523C63.0767 81.1173 62.8282 81.3755 62.5857 81.6275C58.342 86.0365 55.9258 88.5469 52.5962 92.7256C51.5659 94.0185 49.6197 94.2831 48.2968 93.1272C45.8537 90.9923 38.1338 84.0216 32.6202 76.4502C27.2815 69.119 20.1929 61.6043 18.0163 59.3422C16.3918 59.3052 14.933 58.4882 13.7104 57.4826C12.3896 56.3963 11.0964 54.8863 9.83993 53.1627C7.32412 49.7116 4.70062 45.043 2.08485 40.2169C1.21104 38.6048 0.74164 36.4363 0.572313 34.0984C0.40016 31.7214 0.526749 29.0039 0.966901 26.184C1.84344 20.5683 3.99846 14.3342 7.76806 9.45458C11.5763 4.52496 17.0821 0.937687 24.4683 0.943038C31.6082 0.94821 40.1682 4.31327 50.3207 12.3572C59.4648 4.32609 67.9764 0.778372 75.5162 0.509814C83.2526 0.234256 89.6833 3.42276 94.3921 8.21924C99.0753 12.9896 102.088 19.3725 103.111 25.666ZM75.6586 4.50728C69.1657 4.73855 61.3024 7.87323 52.3897 15.8691C51.2834 16.8617 49.582 16.8951 48.4362 15.9715C38.3663 7.85469 30.4705 4.94739 24.4654 4.94304C18.5603 4.93876 14.1443 7.74371 10.9335 11.9C7.68407 16.1062 5.72279 21.6516 4.91905 26.8009C4.51905 29.3635 4.4145 31.7748 4.56186 33.8095C4.71205 35.8832 5.11283 37.4093 5.60152 38.3109C8.22956 43.1596 10.7359 47.6015 13.0722 50.8064C14.2418 52.4107 15.3052 53.6151 16.2513 54.3933C17.2234 55.1929 17.8409 55.3542 18.1668 55.3429C18.849 55.3193 19.8461 55.4805 20.6182 56.2782C22.4178 58.1373 30.0901 66.1807 35.8537 74.0956C40.6011 80.6148 47.1556 86.754 50.1297 89.4091C53.2535 85.5547 55.7266 82.9854 59.6735 78.885C59.9258 78.6229 60.1841 78.3545 60.449 78.0791C61.7667 76.7094 63.9127 74.7047 66.5861 72.2074C74.5195 64.7963 87.0977 53.0462 96.4604 40.6728C99.1614 37.1031 100.068 31.8738 99.1632 26.308C98.2622 20.7674 95.5988 15.1582 91.5377 11.0215C87.5022 6.91081 82.1202 4.27713 75.6586 4.50728Z" fill="#E5D9D9"/>
</svg>
