<svg width="201" height="185" viewBox="0 0 201 185" fill="none" xmlns="http://www.w3.org/2000/svg">
<path id='path1' fill-rule="evenodd" clip-rule="evenodd" d="M199.937 48.359C201.925 60.5649 200.097 72.7491 193.582 81.4463C174.48 106.946 148.477 131.479 132.612 146.447C127.444 151.324 123.351 155.185 120.923 157.734C120.404 158.28 119.897 158.811 119.402 159.33C110.378 168.801 105.364 174.063 97.9083 183.658L97.2679 184.482L96.4719 183.807L97.1187 183.044C96.4719 183.807 96.4718 183.807 96.4715 183.806L96.4707 183.806L96.4677 183.803L96.4565 183.794L96.4133 183.757C96.3947 183.741 96.3718 183.721 96.3446 183.698C96.3162 183.674 96.2831 183.645 96.2455 183.613C96.1636 183.543 96.0602 183.453 95.9363 183.346C95.8375 183.26 95.7257 183.163 95.6014 183.055C95.0412 182.566 94.2277 181.849 93.2114 180.932C91.1791 179.098 88.3348 176.467 85.0829 173.269C78.5846 166.88 70.4352 158.21 63.8881 149.129C57.417 140.153 49.6926 131.057 43.5778 124.197C40.522 120.769 37.8718 117.904 35.9859 115.896C35.0431 114.892 34.2915 114.103 33.776 113.565C33.611 113.392 33.4702 113.246 33.355 113.127C31.0134 113.468 28.6602 112.547 26.3808 110.874C23.9115 109.061 21.3886 106.266 18.8341 102.828C13.7211 95.9477 8.31374 86.2589 2.81808 76.0169C1.35191 73.2845 0.460975 69.3659 0.137942 64.8122C-0.186485 60.2388 0.0564479 54.9446 0.918773 49.4066C2.64149 38.3429 6.85383 26.1986 14.0805 16.8249C21.327 7.42557 31.6313 0.789866 45.4391 0.913454C59.1942 1.03657 76.248 7.86759 97.0489 24.9658C97.0427 24.9606 97.0412 24.9615 97.0482 24.9638C97.0556 24.9662 97.0678 24.9685 97.0828 24.9681C97.0978 24.9678 97.1092 24.9649 97.1154 24.9625C97.1211 24.9603 97.1184 24.9603 97.1113 24.9667C115.67 7.95037 132.619 0.69153 147.258 0.0473754C161.915 -0.597542 174.113 5.39506 183.121 14.5857C192.115 23.7628 197.947 36.14 199.937 48.359ZM33.428 111.08C31.7185 111.466 29.7839 110.891 27.5645 109.261C25.3307 107.621 22.9474 105.01 20.4394 101.635C15.4273 94.8905 10.0847 85.3293 4.58041 75.0713C3.30435 72.6931 2.44672 69.0941 2.13293 64.6707C1.82053 60.2669 2.05253 55.1246 2.89496 49.7143C4.58176 38.8813 8.69826 27.0819 15.6644 18.0461C22.6108 9.03599 32.3634 2.7965 45.4212 2.91337C58.5317 3.03072 75.1522 9.55582 95.7789 26.5108C96.548 27.1429 97.7223 27.12 98.463 26.4408C116.796 9.63078 133.318 2.66268 147.346 2.04544C161.357 1.42897 173.023 7.14052 181.692 15.9856C190.375 24.8443 196.033 36.8344 197.963 48.6805C199.894 60.5396 198.071 72.118 191.982 80.2472C173.004 105.581 147.305 129.829 131.414 144.822C126.166 149.774 121.988 153.716 119.475 156.354C118.951 156.905 118.44 157.441 117.941 157.965C109.382 166.946 104.374 172.202 97.4578 180.987C97.4284 180.902 97.3981 180.813 97.3668 180.722C96.9288 179.44 96.3085 177.582 95.5812 175.282C94.1264 170.68 92.2452 164.312 90.5383 157.247C88.8308 150.179 87.3019 142.429 86.5459 135.059C85.7884 127.674 85.8156 120.745 87.17 115.285C87.9124 112.291 87.6325 109.829 86.384 107.91C85.1493 106.012 83.083 104.826 80.6262 104.122C75.7433 102.722 68.8203 103.084 61.8945 104.118C54.9272 105.157 47.7984 106.903 42.4215 108.385C39.7306 109.126 37.4733 109.803 35.8877 110.295C35.0948 110.541 34.4697 110.741 34.042 110.879C33.8282 110.948 33.6637 111.002 33.5523 111.039L33.428 111.08ZM35.5285 112.503C36.0226 113.021 36.6692 113.702 37.4438 114.527C39.3392 116.545 42.0014 119.423 45.0707 122.866C51.2059 129.749 58.9815 138.903 65.5104 147.959C71.9634 156.91 80.0236 165.49 86.4851 171.843C89.713 175.017 92.536 177.629 94.5511 179.447C94.6863 179.569 94.8178 179.687 94.9456 179.802C94.5809 178.708 94.1502 177.39 93.6743 175.885C92.2097 171.252 90.3148 164.838 88.5942 157.716C86.8743 150.597 85.3246 142.753 84.5564 135.263C83.7897 127.789 83.7928 120.593 85.2288 114.803C85.8815 112.172 85.5672 110.322 84.7076 109.001C83.8341 107.658 82.2785 106.676 80.075 106.044C75.6373 104.772 69.0865 105.067 62.1896 106.096C55.3343 107.119 48.2917 108.842 42.9528 110.313C40.2858 111.048 38.0492 111.719 36.4803 112.205C36.1285 112.314 35.8104 112.414 35.5285 112.503Z" fill="#E5D9D9"/>
</svg>
